<?xml version="1.0" encoding="UTF-8"?>
<svg xmlns="http://www.w3.org/2000/svg" viewBox="0 0 298.85 124.39">
  <defs>
    <style>
      .cls-1 {
        font-family: MyriadPro-Regular, 'Myriad Pro';
        font-size: 2.93px;
        stroke-width: .15px;
      }

      .cls-1, .cls-2, .cls-3 {
        fill: #fff;
      }

      .cls-1, .cls-4, .cls-5, .cls-6, .cls-7, .cls-8, .cls-9, .cls-3, .cls-10, .cls-11 {
        stroke-miterlimit: 10;
      }

      .cls-1, .cls-5, .cls-9 {
        stroke: #fff;
      }

      .cls-12 {
        fill: #ceccea;
      }

      .cls-13, .cls-14 {
        fill: #53c1de;
      }

      .cls-15 {
        fill: #ef652a;
      }

      .cls-16 {
        fill: #44a8b3;
      }

      .cls-17 {
        fill: #1f4b51;
      }

      .cls-18 {
        fill: #183a3d;
      }

      .cls-19 {
        fill: #dd1741;
      }

      .cls-4 {
        stroke-width: .47px;
      }

      .cls-4, .cls-5, .cls-9, .cls-11 {
        fill: none;
      }

      .cls-4, .cls-6, .cls-10, .cls-11 {
        stroke: aqua;
      }

      .cls-5 {
        stroke-width: 1.06px;
      }

      .cls-20 {
        fill: #004963;
      }

      .cls-21 {
        fill: #41acb5;
      }

      .cls-22 {
        fill: #bfc180;
      }

      .cls-23 {
        fill: #00bbc9;
      }

      .cls-24 {
        fill: #0c73b8;
      }

      .cls-25 {
        fill: #a9a9e0;
      }

      .cls-26 {
        fill: #006c9b;
      }

      .cls-6 {
        fill: #387272;
      }

      .cls-6, .cls-7, .cls-10, .cls-11 {
        stroke-width: .5px;
      }

      .cls-7 {
        fill: #00d6d0;
      }

      .cls-7, .cls-8, .cls-3 {
        stroke: #000;
      }

      .cls-27 {
        fill: #f7df1e;
      }

      .cls-8 {
        fill: #051414;
      }

      .cls-28 {
        fill: #ecedee;
      }

      .cls-9 {
        stroke-width: 1.05px;
      }

      .cls-29, .cls-14 {
        fill-rule: evenodd;
      }

      .cls-3 {
        stroke-width: .25px;
      }

      .cls-10 {
        fill: #030f0f;
      }

      .cls-30 {
        fill: #30a9dc;
      }

      .cls-31 {
        fill: #e34f26;
      }
    </style>
  </defs>
  <g id="Capa_2" data-name="Capa 2">
    <path class="cls-17" d="M59.18.27h166.26c2.76,0,5,2.24,5,5v109.99c0,.74-.6,1.34-1.34,1.34H55.51c-.74,0-1.34-.6-1.34-1.34V5.27c0-2.76,2.24-5,5-5Z"/>
    <path class="cls-25" d="M125.99,53.09c0-18.57,9.24-35.27,23.96-46.88h-84.94c-2.21,0-4.01,1.79-4.01,4.01v97.63c0,2.21,1.79,4.01,4.01,4.01h106.64c-26.79-9.49-45.66-32.22-45.66-58.75Z"/>
    <path class="cls-12" d="M223.62,107.84V10.21c0-2.21-2-4.01-4.46-4.01h-77.49c-16.38,11.61-26.66,28.32-26.66,46.88,0,26.54,20.99,49.26,50.79,58.75h53.36c2.46,0,4.46-1.79,4.46-4.01Z"/>
    <path class="cls-17" d="M247.1,124.01H42.56c-1.95-1.95-3.05-3.05-5-5v-2.5c0-1.1.9-2,2-2h210.54c1.1,0,2,.9,2,2v2.5c-1.95,1.95-3.05,3.05-5,5Z"/>
    <rect class="cls-8" x="70.65" y="18.67" width="143.32" height="83.68"/>
    <rect class="cls-7" x="70.65" y="18.67" width="143.32" height="5.34"/>
    <g>
      <line class="cls-9" x1="209.51" y1="23.07" x2="212.35" y2="20.01"/>
      <line class="cls-5" x1="209.49" y1="19.98" x2="212.27" y2="23.2"/>
    </g>
    <rect class="cls-17" x="204.22" y="20.46" width="3.06" height="2.33"/>
    <rect class="cls-2" x="204.86" y="19.82" width="3.06" height="2.43"/>
    <rect class="cls-17" x="200.07" y="21.03" width="3" height="1.21"/>
    <rect x="196.28" y="18.48" width="1.53" height="5.71"/>
  </g>
  <g id="Capa_3" data-name="Capa 3">
    <rect class="cls-17" x="76.21" y="24.92" width="36.43" height="72.99"/>
    <rect class="cls-2" x="73.28" y="20.38" width="8" height="2.3"/>
    <rect class="cls-2" x="82.72" y="20.38" width="16.77" height="2.3"/>
    <rect class="cls-2" x="84.57" y="43.36" width="16.77" height="2.3"/>
    <rect class="cls-2" x="84.57" y="47.19" width="16.77" height="2.3"/>
    <rect class="cls-2" x="84.57" y="51.02" width="16.77" height="2.3"/>
    <rect class="cls-3" x="77.96" y="26.26" width="33.23" height="2.3"/>
    <rect class="cls-2" x="101.11" y="20.38" width="12.26" height="2.3"/>
    <rect class="cls-2" x="115.06" y="20.38" width="14.68" height="2.3"/>
    <rect class="cls-2" x="131.32" y="20.38" width="9.96" height="2.3"/>
    <rect class="cls-2" x="142.98" y="20.38" width="12.89" height="2.3"/>
    <rect class="cls-2" x="80.38" y="33.19" width="8" height="2.3"/>
    <text class="cls-1" transform="translate(78.15 35.11)"><tspan x="0" y="0">&gt;</tspan></text>
    <rect class="cls-2" x="80.57" y="38.26" width="8" height="2.3"/>
    <text class="cls-1" transform="translate(78.35 38.45) rotate(90)"><tspan x="0" y="0">&gt;</tspan></text>
    <rect class="cls-26" x="76.46" y="92.89" width="10.13" height="4.6" rx="2.3" ry="2.3"/>
    <rect class="cls-26" x="89.01" y="92.89" width="10.13" height="4.6" rx="2.3" ry="2.3"/>
    <rect class="cls-26" x="101.92" y="92.89" width="10.13" height="4.6" rx="2.3" ry="2.3"/>
    <rect class="cls-20" x="70.95" y="24.92" width="4.65" height="72.99"/>
    <rect class="cls-21" x="71.74" y="27.23" width="3.15" height="2.64"/>
    <rect class="cls-21" x="71.74" y="31.87" width="3.15" height="2.64"/>
    <rect class="cls-21" x="71.74" y="36.36" width="3.15" height="2.64"/>
    <rect class="cls-21" x="71.74" y="40.56" width="3.15" height="2.64"/>
    <rect class="cls-21" x="71.74" y="44.68" width="3.15" height="2.64"/>
    <rect class="cls-21" x="71.74" y="49.32" width="3.15" height="2.64"/>
    <rect class="cls-2" x="124.26" y="68.51" width="24.72" height=".83"/>
    <rect class="cls-2" x="151.26" y="60.66" width="11.12" height=".83"/>
    <rect class="cls-2" x="164.54" y="60.66" width="11.12" height=".83"/>
    <rect class="cls-2" x="124.39" y="60.66" width="24.73" height=".83"/>
    <rect class="cls-2" x="124.39" y="65.02" width="32.03" height=".83"/>
    <rect class="cls-2" x="124.39" y="37.63" width="8" height=".83"/>
    <rect class="cls-22" x="129.74" y="42.26" width="4.79" height=".83"/>
    <rect class="cls-22" x="129.74" y="56.94" width="4.79" height=".83"/>
    <rect class="cls-19" x="117.64" y="33.93" width="6.02" height=".83"/>
    <rect class="cls-19" x="117.64" y="72.78" width="6.02" height=".83"/>
    <rect class="cls-23" x="134.82" y="45.24" width="14.3" height=".83"/>
    <rect class="cls-23" x="134.82" y="47.96" width="14.3" height=".83"/>
    <rect class="cls-23" x="134.82" y="50.68" width="14.3" height=".83"/>
    <rect class="cls-23" x="134.82" y="53.39" width="14.3" height=".83"/>
    <rect class="cls-6" x="117.19" y="24.92" width="14.13" height="3.63"/>
    <rect class="cls-10" x="133.65" y="24.92" width="14.13" height="3.63"/>
    <rect class="cls-10" x="149.95" y="24.92" width="14.13" height="3.63"/>
    <line class="cls-4" x1="196.26" y1="28.55" x2="116.96" y2="28.55"/>
    <line class="cls-11" x1="196.02" y1="28.55" x2="196.02" y2="23.76"/>
    <path d="M117.08,112.78h55.51c.55,0,1,.45,1,1v.69c0,1.1-.9,2-2,2h-53.51c-1.1,0-2-.9-2-2v-.69c0-.55.45-1,1-1Z"/>
    <circle cx="142.13" cy="3.48" r="1.79"/>
    <circle class="cls-18" cx="142.12" cy="3.49" r=".54"/>
    <rect class="cls-2" x="134.53" y="37.63" width="16" height=".83"/>
  </g>
  <g id="Capa_4" data-name="Capa 4">
    <path class="cls-16" d="M256.07,93.35c1.88-7.51,6.57-11.27,14.09-11.27,11.27,0,12.68,8.45,18.32,9.86,3.76.94,7.04-.47,9.86-4.23-1.88,7.51-6.57,11.27-14.09,11.27-11.27,0-12.68-8.45-18.32-9.86-3.76-.94-7.04.47-9.86,4.23ZM241.98,110.26c1.88-7.51,6.57-11.27,14.09-11.27,11.27,0,12.68,8.45,18.32,9.86,3.76.94,7.04-.47,9.86-4.23-1.88,7.51-6.57,11.27-14.09,11.27-11.27,0-12.68-8.45-18.32-9.86-3.76-.94-7.04.47-9.86,4.23Z"/>
    <g>
      <path class="cls-13" d="M270.16,19.04c0-2.04-1.71-3.7-3.81-3.7s-3.81,1.65-3.81,3.7,1.71,3.7,3.81,3.7,3.81-1.65,3.81-3.7Z"/>
      <path class="cls-14" d="M278.73,12.18c.8-3.17,1.82-9.05-1.75-11.04-3.55-1.98-8.17,1.82-10.61,4.1-2.43-2.26-7.18-6.05-10.74-4.05-3.55,1.99-2.45,7.77-1.63,10.97-3.31.91-8.98,2.87-8.98,6.89s5.67,6.14,8.96,7.05c-.83,3.21-1.87,8.91,1.69,10.9,3.58,2,8.31-1.7,10.77-4.01,2.45,2.3,7.03,6.02,10.58,4.02,3.56-2,2.63-7.8,1.81-11.01,3.19-.91,8.87-3,8.87-6.95s-5.7-5.95-8.96-6.86ZM278.32,24.29c-.54-1.66-1.27-3.42-2.16-5.24.85-1.78,1.55-3.52,2.08-5.17,2.39.67,7.63,2.21,7.63,5.16s-5.03,4.53-7.54,5.25ZM276.1,35.47c-2.65,1.49-6.58-2.07-8.4-3.76,1.2-1.28,2.4-2.76,3.58-4.4,2.06-.18,4.01-.47,5.78-.86.58,2.27,1.7,7.54-.96,9.03ZM256.57,35.45c-2.65-1.48-1.44-6.57-.83-8.93,1.75.38,3.68.64,5.75.81,1.18,1.61,2.42,3.09,3.66,4.39-1.54,1.44-5.92,5.22-8.58,3.73ZM246.83,19.04c0-2.99,5.21-4.51,7.65-5.18.53,1.68,1.23,3.45,2.08,5.23-.86,1.81-1.57,3.6-2.11,5.3-2.33-.65-7.62-2.35-7.62-5.34ZM256.54,2.72c2.66-1.49,6.79,2.14,8.55,3.78-1.24,1.29-2.47,2.76-3.64,4.36-2.01.18-3.93.47-5.7.86-.66-2.57-1.88-7.51.78-9ZM272.58,12.78c1.36.17,2.67.39,3.89.66-.37,1.14-.83,2.34-1.37,3.56-.78-1.44-1.62-2.85-2.53-4.22ZM266.37,7.76c.84.88,1.68,1.87,2.51,2.94-1.68-.08-3.36-.08-5.04,0,.83-1.06,1.68-2.05,2.53-2.94ZM257.61,17c-.53-1.22-.99-2.42-1.36-3.58,1.22-.26,2.52-.48,3.87-.64-.91,1.37-1.74,2.78-2.51,4.22ZM260.16,25.43c-1.4-.15-2.72-.36-3.93-.61.38-1.18.84-2.41,1.38-3.65.78,1.46,1.63,2.88,2.55,4.27ZM266.42,30.44c-.86-.9-1.73-1.9-2.57-2.98,1.69.06,3.38.06,5.07,0-.83,1.1-1.67,2.1-2.51,2.99ZM275.12,21.1c.57,1.26,1.05,2.48,1.43,3.64-1.24.27-2.57.49-3.98.66.91-1.4,1.76-2.83,2.55-4.3ZM270.26,25.61c-2.59.18-5.19.18-7.77.01-1.47-2.08-2.78-4.27-3.91-6.54,1.12-2.27,2.42-4.45,3.88-6.53,2.59-.19,5.19-.19,7.78,0,1.45,2.08,2.75,4.26,3.9,6.5-1.14,2.27-2.44,4.46-3.88,6.55ZM276.07,2.67c2.66,1.49,1.48,6.77.9,9.07-1.77-.4-3.69-.69-5.71-.87-1.17-1.62-2.39-3.09-3.61-4.37,1.79-1.67,5.78-5.3,8.42-3.83Z"/>
    </g>
    <g>
      <path class="cls-24" d="M3.62,120.74L.74,88.46h31.65l-2.88,32.28-12.98,3.65"/>
      <path class="cls-30" d="M16.6,121.58l10.46-2.88,2.46-27.65h-12.91"/>
      <path class="cls-28" d="M16.6,103.06H7.34l.35,4h8.91v-4ZM16.6,95.06H6.64l.35,3.93h9.61v-3.93ZM16.6,113.37l-8.7-2.32.49,4.21,8.21,2.25v-4.14Z"/>
      <path class="cls-2" d="M16.6,107.06h4.84l-.49,5.12-4.35,1.19v4.14l8.07-2.25,1.82-20.21h-9.89v3.93h5.61l-.42,4.07h-5.19v4Z"/>
    </g>
    <g>
      <path class="cls-31" d="M12.63,31.97L9.91,1.54h29.83l-2.71,30.43-12.24,3.44"/>
      <path class="cls-15" d="M24.86,32.77l9.86-2.71,2.32-26.06h-12.17"/>
      <path class="cls-28" d="M24.86,15.3h-4.96l-.33-3.84h5.29v-3.7h-9.39l.99,11.31h8.4v-3.77ZM24.86,25.03l-4.23-1.12-.26-2.98h-3.7l.46,5.89,7.74,2.12v-3.9Z"/>
      <path class="cls-2" d="M24.86,19.07h4.56l-.46,4.83-4.1,1.12v3.9l7.61-2.12,1.06-11.51h-8.67v3.77ZM24.86,7.76v3.7h9l.33-3.7h-9.33Z"/>
    </g>
    <g>
      <rect class="cls-27" x="13.66" y="46.07" width="30.78" height="30.78"/>
      <path d="M34.34,70.12c.62,1.01,1.43,1.76,2.85,1.76,1.2,0,1.96-.6,1.96-1.43,0-.99-.79-1.34-2.11-1.92l-.72-.31c-2.09-.89-3.47-2-3.47-4.36,0-2.17,1.65-3.82,4.24-3.82,1.84,0,3.16.64,4.11,2.32l-2.25,1.45c-.5-.89-1.03-1.24-1.86-1.24s-1.38.54-1.38,1.24c0,.87.54,1.22,1.78,1.76l.72.31c2.46,1.05,3.85,2.13,3.85,4.54,0,2.6-2.05,4.03-4.79,4.03s-4.42-1.28-5.27-2.96l2.35-1.37ZM24.12,70.37c.45.81.87,1.49,1.86,1.49s1.55-.37,1.55-1.82v-9.83h2.89v9.87c0,2.99-1.76,4.36-4.32,4.36-2.32,0-3.66-1.2-4.34-2.64l2.35-1.43Z"/>
    </g>
    <path class="cls-29" d="M240.72,64.53c-.48,1.15-.75,2.38-.79,3.63.07.77.33,1.51.76,2.15.82.94,1.8,1.73,2.89,2.32l7.09,4.72c.87.69,1.85,1.24,2.9,1.62.68.16,1.39.16,2.07,0,1.06-.37,2.05-.91,2.93-1.6l7.17-4.72c1.11-.59,2.1-1.39,2.93-2.33.44-.64.7-1.39.76-2.16-.05-1.26-.32-2.5-.81-3.65l-6.27-19.73c-.14-.64-.39-1.25-.75-1.8-.26-.31-.59-.56-.97-.71-.63-.17-1.29-.23-1.94-.17h-8.16c-.65-.06-1.31,0-1.94.17-.38.15-.71.39-.97.71-.35.55-.6,1.16-.74,1.8l-6.18,19.76h0ZM259.03,46.28c.29.46.5.98.61,1.51l5.38,17.68c-2.02-1.05-4.19-1.78-6.43-2.18l-3.5-11.84c-.07-.24-.33-.38-.57-.3-.05.02-.1.04-.14.07-.08.06-.14.14-.16.23l-3.46,11.83c-2.25.39-4.43,1.13-6.46,2.18l5.4-17.68c.11-.54.32-1.05.61-1.51.21-.26.49-.47.8-.59.53-.14,1.08-.19,1.62-.14h3.86c.55-.05,1.1,0,1.63.14.31.13.59.33.81.6h0ZM254.87,67.59c1.66.1,3.31-.35,4.7-1.28.32,1,.22,2.09-.29,3.02-.51.87-1.25,1.58-2.14,2.05-.93.59-1.73,1.11-1.73,2.47,0,.44.1.87.29,1.26-1.29-.53-2.12-1.79-2.12-3.18v-.08c0-.94,0-2.11-1.33-2.11-.19,0-.37.04-.54.11-.35.14-.62.42-.76.76-.07.17-.11.36-.11.54-.91-1-1.4-2.31-1.37-3.66,0-.58.08-1.17.24-1.73.55,1.05,2.66,1.83,5.16,1.83h0Z"/>
  </g>
</svg>